<svg width="55" height="50" viewBox="0 0 55 50" fill="none" xmlns="http://www.w3.org/2000/svg">
<path d="M53.7483 39.1917C53.6235 38.9917 53.4737 38.8 53.299 38.6333L53.2241 38.5667C52.8248 38.15 51.9012 36.9333 52.0177 35.8667C52.5252 33.9917 52.2673 31.2083 51.0276 28.5L51.3271 27.2667C51.5767 26.2417 52.076 21.8833 50.0542 19.3167C49.3969 18.4833 48.5399 17.9333 47.5664 17.6917C44.7043 7.48333 35.3441 0 24.2367 0C10.8495 0 0 10.8667 0 24.275C0 34.775 6.66446 43.725 15.983 47.1C16.6653 48.6083 18.3127 50 21.2913 50C21.3745 50 21.4577 50 21.5492 50H21.6574L21.7656 49.9833C23.5378 49.7833 25.3183 49.4667 27.0489 49.05L30.4768 48.2167C31.9328 48.375 33.3805 48.4583 34.8199 48.4583C41.3263 48.4583 47.3418 46.85 52.7 43.675L52.7332 43.6583L52.7665 43.6333C54.2642 42.6833 54.7051 40.6917 53.7566 39.1917H53.7483ZM13.1043 40.2917C10.8245 40.5917 10.1922 39.3167 10.0591 38.9667C9.55988 37.8917 10.4585 36.4417 10.5167 35.375C8.60306 31.7667 7.77936 27.6833 8.14545 23.6083C8.18705 23.2 7.89584 22.8417 7.49648 22.7917C6.56462 22.6667 6.56462 23.65 6.54798 24.3333C5.39979 22.7583 4.71754 20.8917 4.56777 18.95C4.44297 16.325 7.31343 16.2667 9.16051 16.85C10.317 17.1083 11.4985 17.2333 12.6883 17.2083C13.7948 16.6 14.8765 16.0417 15.9248 15.5833C20.218 13.5333 24.894 12.4083 29.6448 12.275C30.0525 12.2667 30.3853 11.9333 30.3936 11.525C30.4019 11.1 30.0691 10.75 29.6448 10.7333C29.0457 10.7333 28.3468 10.7667 27.2402 10.8667C28.7795 9.575 30.5766 8.61667 32.5069 8.05C35.7351 7.16667 36.7003 13.3083 36.4673 14.75C38.1397 16.225 39.3711 18.15 40.0034 20.2917C38.9467 20.1667 37.7985 20.075 36.642 20.0583C32.4986 20 28.3801 20.6 24.428 21.8333C21.8321 21.45 19.9851 19.6333 17.2144 20.2833C15.6918 20.6167 14.5437 21.8833 14.3773 23.4333C14.1693 25.25 14.1193 28.7 16.1911 31.375C16.241 31.4417 16.2909 31.5 16.3575 31.5583C16.0496 33.55 15.9997 35.5833 16.2243 37.5917C16.2826 38.1167 16.3658 38.6417 16.4573 39.175C14.0944 40.1 14.2525 40.1083 13.1043 40.2917ZM51.4603 41.5833C43.1234 46.525 33.5469 47 24.9439 44.7083C24.5528 44.6167 24.1618 44.8333 24.0287 45.2083C23.8789 45.6167 24.0952 46.0667 24.5029 46.2167C24.8856 46.3167 25.4181 46.4167 26.4831 46.6917C24.844 47.0917 23.18 47.3833 21.4993 47.575C18.5457 47.65 18.1213 46.0333 18.0631 45.625C17.7386 44.375 19.3111 42.825 19.3943 41.6667C18.5623 38.8333 18.3293 35.8667 18.7121 32.9417C18.8701 31.75 19.1281 30.5833 19.4775 29.4333C19.6023 29.0417 19.3943 28.625 19.0116 28.4917C17.9965 28.1583 17.8884 29.4 17.6804 30.1167C16.8317 28.3 16.5239 26.275 16.8151 24.2917C16.9066 23.3917 17.5639 22.65 18.4458 22.4583C19.9934 22.025 21.5243 22.9667 23.0053 23.4917C23.7957 23.7417 24.5944 23.9417 25.4015 24.1C26.5413 23.75 27.6563 23.4667 28.6963 23.2167C33.8714 22.125 38.3643 21.8583 42.9071 22.9167C43.2982 22.9917 43.6892 22.7583 43.8057 22.375C43.9305 21.9583 43.6975 21.525 43.2899 21.4C42.8905 21.3 42.3497 21.1917 41.6757 21.0833C43.1734 20.4917 44.7459 20.125 46.3434 19.9917C49.4301 19.8083 49.3386 25.1833 48.9809 26.6917C48.4733 26.125 47.7245 24.4417 46.7594 25.2667C46.4682 25.5583 46.4598 26.0333 46.7427 26.3333C49.6465 29.5 50.2122 33.5667 49.6548 35.3417C49.1889 38.025 51.5684 40.3333 51.6017 40.3583C51.6433 40.4 51.6766 40.4417 51.7099 40.4917C51.9428 40.8583 51.8347 41.35 51.4686 41.5833H51.4603Z" fill="#FF4757"/>
</svg>
